# xmcd
#
# Track frame offsets:
#	150
#	15301
#	29091
#	45002
#	59522
#	75173
#	93496
#	108637
#	125310
#	139419
#	153463
#	170887
#	188387
#	202703
#	219221
#	232698
#	252121
#	266531
#
# Disc length: 3847 seconds
#
# Revision: 0
# Processed by: cddbd v1.5.2PL0 Copyright (c) Steve Scherf et al.
# Submitted via: FairStars CD Ripper 1.01
#
DISCID=dd0f0512
DTITLE=Danny Ryan - Back Down That Dirt Road
DYEAR=2003
DGENRE=Blues
TTITLE0=Booger Rooger Blues
TTITLE1=I Want To Be Just Like Jesus In My Heart
TTITLE2=Down The Dirt Road
TTITLE3=God Moves On The Water
TTITLE4=Hoppin' Toad Blues
TTITLE5=Illinois Blues
TTITLE6=It Won't Be Long
TTITLE7=Judge Harsh Blues
TTITLE8=Mean Old Bed Bug Blues
TTITLE9=My Black Mama
TTITLE10=My Sweet Little Remy
TTITLE11=Payday
TTITLE12=Pony Blues
TTITLE13=Rope Stretchin' Blues
TTITLE14=Screamin' and Hollerin'
TTITLE15=Shake and Break It
TTITLE16=Shuckin' Sugar
TTITLE17=Death Letter
EXTD=
EXTT0=
EXTT1=
EXTT2=
EXTT3=
EXTT4=
EXTT5=
EXTT6=
EXTT7=
EXTT8=
EXTT9=
EXTT10=
EXTT11=
EXTT12=
EXTT13=
EXTT14=
EXTT15=
EXTT16=
EXTT17=
PLAYORDER=
